<?xml version="1.0" encoding="UTF-8"?>
<svg id="Layer_1" xmlns="http://www.w3.org/2000/svg" version="1.1" viewBox="0 0 1024 1024">
  <!-- Generator: Adobe Illustrator 29.5.1, SVG Export Plug-In . SVG Version: 2.1.0 Build 141)  -->
  <defs>
    <style>
      .st0 {
        fill: #fff;
      }

      .st1 {
        stroke: #000;
        stroke-miterlimit: 10;
        stroke-width: 20px;
      }
    </style>
  </defs>
  <rect class="st0" x="221.9" y="219.2" width="585.6" height="585.6"/>
  <path d="M980.1,555.6c24,0,43.7-19.6,43.7-43.7s-19.6-43.7-43.7-43.7h-124.1v-60.8h124.1c24,0,43.7-19.6,43.7-43.7s-19.6-43.7-43.7-43.7h-124.1v-106.8c0-24-19.6-43.7-43.7-43.7h-108.9V43.7C703.5,19.6,683.8,0,659.8,0s-43.7,19.6-43.7,43.7v126.4h-61V43.7C555.1,19.6,535.5,0,511.5,0s-43.7,19.6-43.7,43.7v126.4h-60.4V43.7C407.4,19.6,387.8,0,363.7,0s-43.7,19.6-43.7,43.7v126.4h-102.4c-24,0-43.7,19.6-43.7,43.7v106.8H43.6C19.6,320.5,0,340.1,0,364.2s19.6,43.7,43.7,43.7h130.8v61H43.6C19.6,468.9,0,488.5,0,512.5s19.6,43.7,43.7,43.7h130.8v58.1H43.6C19.6,614.3,0,633.9,0,658s19.6,43.7,43.7,43.7h130.8v106.8c0,24,19.6,43.7,43.7,43.7h102.4v128.5c0,24,19.6,43.7,43.7,43.7s43.7-19.6,43.7-43.7v-128.5h61v128.5c0,24,19.6,43.7,43.7,43.7s43.7-19.6,43.7-43.7v-128.5h60.2v128.5c0,24,19.6,43.7,43.7,43.7s41.4-19.6,43.7-43.7v-128.5h108.9c24,0,43.7-17.3,43.7-43.7v-106.8h124.1c24,0,43.7-19.6,43.7-43.7s-19.6-43.7-43.7-43.7h-124.1v-58.7h123.9ZM768.9,766.8h-509.8v-509.8h509.8v509.8Z"/>
  <g>
    <path class="st1" d="M425.3,732.6c-1.1-.1-2.3-.3-3.4-.4-5.9-.7-11.7-1.9-17.3-4.1-6.6-2.5-12.5-6-17.5-11-5.3-5.3-8.9-11.5-10.6-18.8-.8-3.2-1.2-6.4-1.1-9.6,0-5.2.9-10.3,2.6-15.3,3.3-9.7,8.6-18.2,15.4-25.8,9.9-11.1,21.8-19.4,35.2-25.6,9-4.1,18.3-7.1,28-8.8,6.5-1.1,13-1.6,19.5-1.4,9.3.3,18.4,2,27,5.8,3.3,1.5,6.4,3.3,9.3,5.4.3.2.6.4,1.1.7v-332h16.1c.2,1.7.4,3.3.6,4.9,1.3,11,2.9,21.9,5.8,32.6,3.5,13,9.2,25,17.3,35.8,5.6,7.5,11.8,14.4,18.4,21,10.7,10.6,20.9,21.7,30.8,33,3.7,4.1,7.3,8.3,10.8,12.6,2.3,2.9,4.4,5.9,6.5,9,4.3,6.3,8.2,12.9,11.5,19.8,4.4,9.2,7.8,18.7,9.7,28.7,1.3,6.9,1.9,13.9,1.8,20.9,0,5.7-.2,11.4-.6,17-.6,9.5-2.1,19-4.2,28.3-2.7,11.7-6.4,23.1-11.2,34.2-4.8,11.1-9.8,22.1-15.6,32.8-.7,1.2-1.4,2.3-2.5,3.1-2.1,1.7-5.6,1.5-7.5-.3-1.4-1.4-1.6-3.1-1.1-4.9.2-.7.5-1.5.8-2.2,3.4-7.5,6.8-14.9,10.2-22.4,5.6-12.6,9.5-25.8,12.6-39.2,1.7-7.6,2.9-15.3,3.5-23.1.6-7.5.6-15.1-.1-22.6-.8-7.9-2.5-15.5-5.1-23-3.9-11.3-9.5-21.8-16.6-31.5-9.3-12.7-20.9-22.8-34.4-30.8-9.9-5.9-20.4-10.2-31.7-12.6-2.9-.6-6-.9-8.9-1.3-.2,0-.4,0-.6,0,0,.3,0,.6,0,.9,0,.4,0,.9,0,1.3,0,80.7,0,161.3,0,242,0,5.1-.6,10-2.1,14.9-1.5,5-3.8,9.8-6.5,14.3-4.8,7.9-10.9,14.6-17.8,20.7-7.8,7-16.7,12.4-26.2,16.7-9.1,4.2-18.6,7.4-28.5,9.1-3.3.6-6.6.9-9.9,1.3-.4,0-.7.1-1.1.2h-12.3Z"/>
    <path class="st1" d="M654.2,654"/>
  </g>
</svg>